# xmcd
#
# Track frame offsets:
#	150
#	17120
#	33555
#	44757
#	65095
#	75032
#	86807
#	101120
#	115420
#	130385
#	143007
#	157412
#
# Disc length: 2326 seconds
#
# Revision: 4
# Processed by: cddbd v1.4PL0 Copyright (c) Steve Scherf et al.
# Submitted via: audiograbber 1.81.03
#
DISCID=ac09140c
DTITLE=James Harman Band - Extra Napkins
DYEAR=1997
DGENRE=Blues
TTITLE0=It's All Right Now
TTITLE1=My First Crime
TTITLE2=All Night Boogie
TTITLE3=Just As Well To Kill Me
TTITLE4=Party Girl
TTITLE5=Extra Napkins
TTITLE6=Sad To Be Alone
TTITLE7=Rambler's Blues
TTITLE8=Hand In Hand
TTITLE9=School Girl
TTITLE10=If You Lose Your Money
TTITLE11=Ain't That Fine
EXTD=
EXTT0=
EXTT1=
EXTT2=
EXTT3=
EXTT4=
EXTT5=
EXTT6=
EXTT7=
EXTT8=
EXTT9=
EXTT10=
EXTT11=
PLAYORDER=
